<?xml version="1.0" encoding="utf-8"?>
<!-- Generator: Adobe Illustrator 16.0.0, SVG Export Plug-In . SVG Version: 6.00 Build 0)  -->
<!DOCTYPE svg PUBLIC "-//W3C//DTD SVG 1.1//EN" "http://www.w3.org/Graphics/SVG/1.1/DTD/svg11.dtd">
<svg version="1.1" id="Capa_1" xmlns="http://www.w3.org/2000/svg" xmlns:xlink="http://www.w3.org/1999/xlink" x="0px" y="0px"
	 width="34px" height="37px" viewBox="0 0 50 50" enable-background="new 0 0 595.28 841.89" xml:space="preserve">
<path d="M9.472,34.518c-1.984,0-3.598,1.615-3.598,3.598s1.614,3.596,3.598,3.596s3.598-1.613,3.598-3.596
	S11.456,34.518,9.472,34.518L9.472,34.518z M9.472,43.924c-3.203,0-5.809-2.605-5.809-5.809s2.606-5.808,5.809-5.808
	s5.809,2.605,5.809,5.808S12.675,43.924,9.472,43.924L9.472,43.924z M20.191,43.709c-0.255,0-0.511-0.088-0.72-0.268
	c-0.463-0.398-0.516-1.096-0.118-1.559l5.792-6.744v-5.977c0-0.611,0.495-1.105,1.105-1.105s1.105,0.495,1.105,1.105v5.975
	l5.793,6.746c0.398,0.463,0.345,1.162-0.118,1.559c-0.208,0.18-0.465,0.268-0.72,0.268c-0.312,0-0.62-0.131-0.839-0.385l-5.221-6.08
	l-5.222,6.08C20.812,43.578,20.502,43.709,20.191,43.709L20.191,43.709z M34.632,25.179H17.885c-0.61,0-1.105-0.495-1.105-1.105
	v-8.827c0-0.476,0.305-0.899,0.757-1.049l5.438-1.807c0.509-0.168,1.066,0.052,1.321,0.523l1.956,3.614l1.956-3.614
	c0.255-0.472,0.813-0.691,1.321-0.523l5.439,1.807c0.452,0.15,0.757,0.573,0.757,1.049l0,8.657c0.008,0.056,0.013,0.112,0.013,0.17
	C35.737,24.684,35.243,25.179,34.632,25.179L34.632,25.179z M18.991,22.968h14.522v-6.924l-3.802-1.263l-2.487,4.595
	c-0.193,0.357-0.566,0.58-0.972,0.58c-0.406,0-0.779-0.223-0.972-0.58l-2.486-4.595l-3.803,1.263V22.968L18.991,22.968z
	 M26.252,11.616c-3.202,0-5.808-2.605-5.808-5.807C20.444,2.606,23.05,0,26.252,0c3.203,0,5.809,2.606,5.809,5.809
	C32.061,9.011,29.455,11.616,26.252,11.616L26.252,11.616z M26.252,2.21c-1.983,0-3.597,1.614-3.597,3.598
	c0,1.983,1.614,3.597,3.597,3.597c1.984,0,3.598-1.614,3.598-3.597C29.85,3.825,28.236,2.21,26.252,2.21L26.252,2.21z
	 M51.399,57.486H34.665c-0.61,0-1.105-0.496-1.105-1.105v-8.826c0-0.477,0.305-0.9,0.757-1.051l5.439-1.807
	c0.508-0.168,1.066,0.051,1.321,0.523l1.956,3.613l1.956-3.613c0.255-0.473,0.813-0.691,1.321-0.523l5.439,1.807
	c0.452,0.15,0.757,0.574,0.757,1.051v8.826C52.504,56.99,52.009,57.486,51.399,57.486L51.399,57.486z M35.771,55.273h14.522v-6.922
	l-3.803-1.264l-2.487,4.596c-0.193,0.355-0.566,0.578-0.972,0.578s-0.779-0.223-0.972-0.578l-2.486-4.596l-3.803,1.264V55.273
	L35.771,55.273z M43.032,43.924c-3.203,0-5.809-2.605-5.809-5.809s2.605-5.808,5.809-5.808s5.809,2.605,5.809,5.808
	S46.235,43.924,43.032,43.924L43.032,43.924z M43.032,34.518c-1.984,0-3.598,1.615-3.598,3.598s1.614,3.596,3.598,3.596
	s3.598-1.613,3.598-3.596S45.016,34.518,43.032,34.518L43.032,34.518z M17.852,57.486H1.105C0.495,57.486,0,56.99,0,56.381v-8.826
	c0-0.477,0.305-0.9,0.756-1.051l5.439-1.807c0.509-0.168,1.065,0.051,1.321,0.523l1.955,3.613l1.956-3.613
	c0.255-0.473,0.813-0.691,1.321-0.523l5.439,1.807c0.452,0.15,0.756,0.574,0.756,1.051l0,8.656c0.009,0.055,0.013,0.111,0.013,0.17
	C18.958,56.99,18.463,57.486,17.852,57.486L17.852,57.486z M2.21,55.273h14.523l0-6.922l-3.802-1.264l-2.487,4.596
	c-0.193,0.355-0.566,0.578-0.972,0.578c-0.406,0-0.779-0.223-0.972-0.578l-2.487-4.596L2.21,48.352V55.273L2.21,55.273z"/>
</svg>
