<?xml version="1.0" encoding="utf-8"?>
<!-- Generator: Adobe Illustrator 16.0.0, SVG Export Plug-In . SVG Version: 6.00 Build 0)  -->
<!DOCTYPE svg PUBLIC "-//W3C//DTD SVG 1.1//EN" "http://www.w3.org/Graphics/SVG/1.1/DTD/svg11.dtd">
<svg version="1.1" id="Capa_1" xmlns="http://www.w3.org/2000/svg" xmlns:xlink="http://www.w3.org/1999/xlink" x="0px" y="0px"
	 width="595.28px" height="841.89px" viewBox="0 0 595.28 841.89" enable-background="new 0 0 595.28 841.89" xml:space="preserve">
<path d="M47.703,55.275h10.269V2.211H47.703V55.275L47.703,55.275z M28.707,55.275h10.268V21.208H28.707V55.275L28.707,55.275z
	 M1.105,57.486C0.495,57.486,0,56.991,0,56.38c0-0.61,0.495-1.105,1.105-1.105h6.393V39.1c0-0.611,0.495-1.105,1.105-1.105h12.48
	c0.61,0,1.105,0.495,1.105,1.105v16.175h4.306V20.103c0-0.611,0.495-1.105,1.105-1.105H40.08c0.61,0,1.106,0.495,1.106,1.105v35.172
	h4.306V1.105c0-0.61,0.494-1.105,1.105-1.105h12.479c0.61,0,1.106,0.495,1.106,1.105v54.17h6.393c0.61,0,1.105,0.495,1.105,1.105
	c0,0.611-0.495,1.105-1.105,1.105H1.105L1.105,57.486z M9.71,55.275h10.269v-15.07H9.71V55.275L9.71,55.275z"/>
</svg>
