<?xml version="1.0" encoding="utf-8"?>
<!-- Generator: Adobe Illustrator 16.0.0, SVG Export Plug-In . SVG Version: 6.00 Build 0)  -->
<!DOCTYPE svg PUBLIC "-//W3C//DTD SVG 1.1//EN" "http://www.w3.org/Graphics/SVG/1.1/DTD/svg11.dtd">
<svg version="1.1" id="Capa_1" xmlns="http://www.w3.org/2000/svg" xmlns:xlink="http://www.w3.org/1999/xlink" x="0px" y="0px"
	 width="595.28px" height="841.89px" viewBox="0 0 595.28 841.89" enable-background="new 0 0 595.28 841.89" xml:space="preserve">
<path d="M15.595,24.307l-5.14,21.151l6.658,9.056l6.659-9.056l-5.139-21.151H15.595L15.595,24.307z M2.257,7.135l7.899,10.435
	l5.154-3.65L2.73,3.272L2.257,7.135L2.257,7.135z M24.775,6.065l4.554-3.854H4.899l4.554,3.854H24.775L24.775,6.065z M17.114,12.55
	l5.049-4.273H12.065L17.114,12.55L17.114,12.55z M20.266,17.584l-3.151-2.232l-3.15,2.231l1.552,4.513h3.199L20.266,17.584
	L20.266,17.584z M24.306,20.197c-0.222,0-0.445-0.066-0.638-0.203l-1.521-1.078l-1.493,4.34l5.39,22.182
	c0.078,0.317,0.01,0.652-0.184,0.916l-7.855,10.682c-0.208,0.283-0.539,0.451-0.891,0.451s-0.683-0.167-0.891-0.451L8.369,46.353
	c-0.193-0.263-0.261-0.599-0.184-0.916l5.391-22.182l-1.493-4.341l-1.523,1.079c-0.194,0.137-0.417,0.203-0.638,0.203
	c-0.334,0-0.665-0.152-0.882-0.438L0.224,8.112C0.051,7.884-0.027,7.596,0.008,7.311l0.776-6.34
	c0.049-0.403,0.316-0.747,0.694-0.895C1.609,0.025,1.747,0,1.882,0h30.465c0.565,0,1.031,0.424,1.098,0.971l0.776,6.34
	c0.035,0.285-0.042,0.573-0.216,0.801l-8.816,11.646C24.971,20.045,24.64,20.197,24.306,20.197L24.306,20.197z M18.917,13.92
	l5.154,3.65l7.9-10.435l-0.474-3.863L18.917,13.92L18.917,13.92z"/>
</svg>
