<?xml version="1.0" encoding="utf-8"?>
<!-- Generator: Adobe Illustrator 16.0.0, SVG Export Plug-In . SVG Version: 6.00 Build 0)  -->
<!DOCTYPE svg PUBLIC "-//W3C//DTD SVG 1.1//EN" "http://www.w3.org/Graphics/SVG/1.1/DTD/svg11.dtd">
<svg version="1.1" id="Capa_1" xmlns="http://www.w3.org/2000/svg" xmlns:xlink="http://www.w3.org/1999/xlink" x="0px" y="0px"
	 width="45px" height="39px" viewBox="0 0 55 55" enable-background="new 0 0 595.28 841.89" xml:space="preserve">
<path d="M42.188,9.753H26.139c-0.336,0-0.662,0.047-0.971,0.137c-1.144,0.332-2.047,1.236-2.379,2.379
	c-0.089,0.309-0.137,0.633-0.137,0.971v2.293v14.09c0,1.311,1,2.375,2.229,2.375c1.229,0,2.229-1.064,2.229-2.375v-8.279
	c0-0.293,0.117-0.574,0.325-0.781l3.721-3.721c0.207-0.207,0.487-0.324,0.781-0.324h6.583c0.293,0,0.574,0.117,0.781,0.324
	l12.605,12.605c1.117,0,2.123,0.408,2.866,1.15l0.364,0.365l4.13-4.131L42.188,9.753L42.188,9.753z M50.064,35.306l5.197,5.197
	c0.72,0.717,2.099,0.617,2.93-0.215c0.435-0.434,0.688-0.988,0.716-1.563c0.025-0.533-0.152-1.02-0.501-1.367l-5.197-5.199
	c-0.325-0.324-0.775-0.502-1.27-0.502c-0.6,0-1.205,0.26-1.661,0.717C49.412,33.242,49.314,34.556,50.064,35.306L50.064,35.306z
	 M45.356,40.013l5.197,5.197c0.72,0.719,2.099,0.617,2.931-0.213c0.866-0.867,0.963-2.184,0.214-2.932l-5.196-5.197
	c-0.325-0.324-0.776-0.504-1.271-0.504c-0.6,0-1.205,0.262-1.661,0.719C44.703,37.949,44.608,39.265,45.356,40.013L45.356,40.013z
	 M40.648,44.722l5.197,5.197c0.719,0.719,2.1,0.615,2.932-0.215c0.865-0.867,0.962-2.182,0.213-2.932l-5.196-5.197
	c-0.325-0.324-0.775-0.504-1.27-0.504c-0.6,0-1.205,0.262-1.661,0.719C39.996,42.658,39.9,43.972,40.648,44.722L40.648,44.722z
	 M37.816,45.781c-0.6,0-1.205,0.262-1.661,0.717c-0.867,0.867-0.963,2.182-0.215,2.932l5.197,5.197
	c0.72,0.717,2.099,0.617,2.931-0.215c0.434-0.434,0.688-0.988,0.715-1.561c0.025-0.535-0.152-1.02-0.5-1.369l-5.197-5.197
	C38.761,45.96,38.31,45.781,37.816,45.781L37.816,45.781z M44.148,8.648l16.652,16.65l6.23-6.23L50.38,2.416L44.148,8.648
	L44.148,8.648z M29.222,49.376l-5.198,5.197c-0.348,0.348-0.525,0.834-0.5,1.367c0.026,0.574,0.281,1.129,0.715,1.563
	c0.832,0.832,2.211,0.934,2.931,0.215l5.197-5.197c0.348-0.35,0.526-0.834,0.5-1.369c-0.026-0.572-0.281-1.127-0.715-1.563
	c-0.456-0.455-1.062-0.717-1.661-0.717C29.997,48.873,29.546,49.052,29.222,49.376L29.222,49.376z M24.513,44.667l-5.196,5.197
	c-0.749,0.75-0.653,2.064,0.214,2.932c0.83,0.832,2.21,0.934,2.931,0.213l5.197-5.197c0.749-0.748,0.652-2.063-0.214-2.93
	c-0.457-0.455-1.063-0.717-1.663-0.717C25.288,44.166,24.837,44.343,24.513,44.667L24.513,44.667z M13.044,43.595l5.198-5.197
	c0.349-0.35,0.526-0.834,0.501-1.369c-0.027-0.574-0.282-1.129-0.716-1.563c-0.456-0.455-1.062-0.717-1.661-0.717
	c-0.493,0-0.944,0.178-1.27,0.504L9.9,40.449c-0.349,0.35-0.526,0.836-0.501,1.369c0.027,0.574,0.281,1.129,0.715,1.563
	C10.945,44.21,12.326,44.314,13.044,43.595L13.044,43.595z M20.44,14.619V13.24c0-2.252,1.312-4.201,3.212-5.127l-4.584-4.584
	L2.417,20.181l6.231,6.23L20.44,14.619L20.44,14.619z M10.211,27.974l4.792,4.793c0.43-0.15,0.889-0.229,1.363-0.229
	c1.182,0,2.357,0.498,3.225,1.365c0.936,0.936,1.394,2.162,1.361,3.344c1.304-0.002,2.479,0.496,3.347,1.363
	c0.824,0.824,1.308,1.896,1.36,3.021c0.006,0.107,0.007,0.217,0.004,0.322c1.301,0,2.476,0.496,3.343,1.365
	c0.937,0.936,1.395,2.16,1.361,3.344c1.09-0.002,2.09,0.346,2.895,0.967c0.12-0.971,0.565-1.93,1.331-2.695
	c0.867-0.869,2.042-1.365,3.224-1.365c0.117-0.105,0.118-0.213,0.123-0.322c0.054-1.125,0.537-2.197,1.36-3.02
	c0.867-0.869,2.043-1.365,3.225-1.365c0.09-1.182,0.547-2.408,1.482-3.344c0.868-0.867,2.044-1.365,3.225-1.365
	c0.117-0.105,0.118-0.213,0.124-0.322c0.053-1.125,0.536-2.197,1.36-3.02c0.241-0.242,0.507-0.457,0.791-0.639L38.062,18.728h-5.667
	L29.321,21.8v7.822c0,2.529-1.992,4.588-4.44,4.588c-2.449,0-4.44-2.059-4.44-4.588V17.746L10.211,27.974L10.211,27.974z
	 M16.484,51.017c-1.183,0-2.358-0.498-3.225-1.365c-0.937-0.936-1.395-2.162-1.361-3.346c-1.305,0.002-2.48-0.494-3.347-1.363
	c-1.729-1.729-1.826-4.445-0.215-6.057l4.83-4.828L0.455,21.345c-0.606-0.605-0.606-1.721-0.002-2.328L17.902,1.568
	c0.303-0.303,0.728-0.477,1.165-0.479c0.437,0,0.862,0.174,1.165,0.479l5.975,5.973h15.924l7.084-7.086
	c0.605-0.605,1.722-0.605,2.329-0.002l17.449,17.449c0.302,0.303,0.477,0.729,0.478,1.164c0,0.438-0.174,0.863-0.478,1.166
	L56.7,32.527l3.269,3.268c1.611,1.611,1.516,4.328-0.214,6.057c-0.866,0.867-2.042,1.365-3.224,1.365
	c-0.09,1.182-0.548,2.408-1.484,3.344c-0.867,0.867-2.042,1.365-3.224,1.365c-0.09,1.182-0.548,2.406-1.483,3.342
	c-0.868,0.869-2.043,1.365-3.226,1.365c-0.089,1.182-0.547,2.406-1.482,3.342c-0.867,0.869-2.043,1.367-3.224,1.367
	c-1.085,0-2.091-0.41-2.833-1.152l-4.519-4.52c-0.088,0.896-0.463,1.75-1.129,2.414l-5.196,5.197
	c-0.742,0.742-1.748,1.152-2.831,1.152c-1.183,0-2.357-0.498-3.225-1.365c-0.824-0.824-1.308-1.896-1.361-3.021
	c-0.005-0.109-0.006-0.217-0.004-0.324c-1.301,0.002-2.477-0.494-3.344-1.363c-0.936-0.936-1.394-2.16-1.36-3.344L16.484,51.017
	L16.484,51.017z M21.074,39.457c-0.494,0-0.944,0.18-1.269,0.504l-5.198,5.197c-0.748,0.748-0.651,2.064,0.215,2.932
	c0.832,0.83,2.211,0.932,2.93,0.213l5.197-5.197c0.35-0.35,0.526-0.834,0.502-1.369c-0.027-0.572-0.281-1.127-0.715-1.561
	C22.279,39.718,21.674,39.457,21.074,39.457L21.074,39.457z"/>
</svg>
