<?xml version="1.0" encoding="utf-8"?>
<!-- Generator: Adobe Illustrator 16.0.0, SVG Export Plug-In . SVG Version: 6.00 Build 0)  -->
<!DOCTYPE svg PUBLIC "-//W3C//DTD SVG 1.1//EN" "http://www.w3.org/Graphics/SVG/1.1/DTD/svg11.dtd">
<svg version="1.1" id="Capa_1" xmlns="http://www.w3.org/2000/svg" xmlns:xlink="http://www.w3.org/1999/xlink" x="0px" y="0px"
	 width="595.28px" height="841.89px" viewBox="0 0 595.28 841.89" enable-background="new 0 0 595.28 841.89" xml:space="preserve">
<path d="M50.862,59.414c-0.517,0-0.979-0.363-1.083-0.889L38.995,4.309c-0.058-0.289,0.002-0.588,0.164-0.832
	c0.163-0.242,0.416-0.412,0.704-0.469l15.02-2.986c0.599-0.119,1.181,0.27,1.299,0.867l10.785,54.217
	c0.057,0.289-0.003,0.588-0.166,0.832c-0.162,0.242-0.415,0.412-0.703,0.469l-15.019,2.986
	C51.007,59.408,50.934,59.414,50.862,59.414L50.862,59.414z M41.379,4.961L51.732,57.01l12.85-2.557L54.229,2.404L41.379,4.961
	L41.379,4.961z M51.89,43.771c-0.517,0-0.979-0.363-1.083-0.889c-0.119-0.6,0.271-1.182,0.868-1.301l7.056-1.404
	c0.602-0.117,1.182,0.271,1.3,0.869c0.119,0.6-0.27,1.182-0.868,1.301l-7.055,1.402C52.034,43.766,51.961,43.771,51.89,43.771
	L51.89,43.771z M49.133,14.377c-1.898,0-3.546-1.354-3.916-3.217c-0.431-2.162,0.979-4.27,3.14-4.701
	c0.258-0.051,0.521-0.076,0.782-0.076c1.899,0,3.546,1.352,3.918,3.217c0.208,1.049-0.004,2.113-0.598,3.002
	c-0.593,0.887-1.497,1.49-2.544,1.699C49.658,14.352,49.395,14.377,49.133,14.377L49.133,14.377z M49.139,8.594
	c-0.117,0-0.235,0.012-0.352,0.035c-0.965,0.191-1.595,1.135-1.402,2.1c0.188,0.947,1.139,1.59,2.1,1.402
	c0.468-0.092,0.872-0.361,1.137-0.758s0.359-0.873,0.267-1.342C50.722,9.199,49.986,8.594,49.139,8.594L49.139,8.594z M52.8,48.344
	c-0.517,0-0.979-0.365-1.083-0.891c-0.119-0.6,0.27-1.182,0.868-1.299l7.055-1.404c0.599-0.119,1.182,0.271,1.3,0.869
	c0.119,0.6-0.27,1.182-0.868,1.301l-7.055,1.402C52.943,48.336,52.871,48.344,52.8,48.344L52.8,48.344z M53.709,52.916
	c-0.517,0-0.979-0.365-1.083-0.891c-0.119-0.6,0.27-1.18,0.868-1.299l7.055-1.404c0.6-0.121,1.182,0.27,1.301,0.869
	c0.119,0.598-0.271,1.18-0.869,1.299l-7.055,1.404C53.853,52.908,53.78,52.916,53.709,52.916L53.709,52.916z M16.419,59.414H1.105
	C0.494,59.414,0,58.92,0,58.309V3.027c0-0.609,0.494-1.105,1.105-1.105h15.313c0.61,0,1.105,0.496,1.105,1.105v55.281
	C17.524,58.92,17.029,59.414,16.419,59.414L16.419,59.414z M2.211,57.203h13.103V4.133H2.211V57.203L2.211,57.203z M8.762,14.961
	c-2.204,0-3.996-1.793-3.996-3.998s1.792-3.998,3.996-3.998s3.997,1.793,3.997,3.998S10.966,14.961,8.762,14.961L8.762,14.961z
	 M8.762,9.176c-0.984,0-1.785,0.803-1.785,1.787s0.801,1.785,1.785,1.785s1.786-0.801,1.786-1.785S9.746,9.176,8.762,9.176
	L8.762,9.176z M12.358,48.934H5.165c-0.61,0-1.104-0.494-1.104-1.105s0.494-1.105,1.104-1.105h7.193
	c0.611,0,1.106,0.494,1.106,1.105S12.97,48.934,12.358,48.934L12.358,48.934z M12.358,53.596H5.165c-0.61,0-1.104-0.496-1.104-1.105
	c0-0.611,0.494-1.105,1.104-1.105h7.193c0.611,0,1.106,0.494,1.106,1.105C13.465,53.1,12.97,53.596,12.358,53.596L12.358,53.596z
	 M12.358,44.273H5.165c-0.61,0-1.104-0.496-1.104-1.105c0-0.611,0.494-1.107,1.104-1.107h7.193c0.611,0,1.106,0.496,1.106,1.107
	C13.465,43.777,12.97,44.273,12.358,44.273L12.358,44.273z M36.588,59.414H21.274c-0.61,0-1.105-0.494-1.105-1.105V3.027
	c0-0.609,0.495-1.105,1.105-1.105h15.313c0.61,0,1.105,0.496,1.105,1.105v55.281C37.693,58.92,37.198,59.414,36.588,59.414
	L36.588,59.414z M22.38,57.203h13.103V4.133H22.38V57.203L22.38,57.203z M28.931,14.961c-2.203,0-3.996-1.793-3.996-3.998
	s1.793-3.998,3.996-3.998c2.204,0,3.997,1.793,3.997,3.998S31.135,14.961,28.931,14.961L28.931,14.961z M28.931,9.176
	c-0.984,0-1.785,0.803-1.785,1.787s0.801,1.785,1.785,1.785c0.985,0,1.786-0.801,1.786-1.785S29.916,9.176,28.931,9.176
	L28.931,9.176z M32.528,48.934h-7.193c-0.611,0-1.105-0.494-1.105-1.105s0.494-1.105,1.105-1.105h7.193
	c0.61,0,1.105,0.494,1.105,1.105S33.139,48.934,32.528,48.934L32.528,48.934z M32.528,53.596h-7.193
	c-0.611,0-1.105-0.496-1.105-1.105c0-0.611,0.494-1.105,1.105-1.105h7.193c0.61,0,1.105,0.494,1.105,1.105
	C33.634,53.1,33.139,53.596,32.528,53.596L32.528,53.596z M32.528,44.273h-7.193c-0.611,0-1.105-0.496-1.105-1.105
	c0-0.611,0.494-1.107,1.105-1.107h7.193c0.61,0,1.105,0.496,1.105,1.107C33.634,43.777,33.139,44.273,32.528,44.273L32.528,44.273z"
	/>
</svg>
