<?xml version="1.0" encoding="utf-8"?>
<!-- Generator: Adobe Illustrator 16.0.0, SVG Export Plug-In . SVG Version: 6.00 Build 0)  -->
<!DOCTYPE svg PUBLIC "-//W3C//DTD SVG 1.1//EN" "http://www.w3.org/Graphics/SVG/1.1/DTD/svg11.dtd">
<svg version="1.1" id="Capa_1" xmlns="http://www.w3.org/2000/svg" xmlns:xlink="http://www.w3.org/1999/xlink" x="0px" y="0px"
	 width="595.28px" height="841.89px" viewBox="0 0 595.28 841.89" enable-background="new 0 0 595.28 841.89" xml:space="preserve">
<path d="M8.612,9.629V7.746c0-1.886,1.533-3.42,3.417-3.42h4.125C17.166,1.74,19.665,0,22.504,0c2.843,0,5.342,1.74,6.351,4.326
	h4.124c1.886,0,3.42,1.534,3.42,3.42v1.884h3.677c2.721,0,4.936,2.216,4.936,4.939v45.37c0,2.722-2.215,4.937-4.936,4.937H4.939
	C2.216,64.876,0,62.661,0,59.939v-45.37c0-2.724,2.216-4.939,4.939-4.939H8.612L8.612,9.629z M32.979,15.246H12.029
	c-1.879,0-3.409-1.526-3.417-3.405H4.939c-1.505,0-2.728,1.225-2.728,2.729v45.37c0,1.503,1.223,2.726,2.728,2.726h35.136
	c1.502,0,2.725-1.223,2.725-2.726v-45.37c0-1.504-1.223-2.729-2.725-2.729h-3.677C36.391,13.719,34.859,15.246,32.979,15.246
	L32.979,15.246z M12.029,6.536c-0.664,0-1.205,0.542-1.205,1.209v4.08c0,0.667,0.541,1.208,1.205,1.208h20.949
	c0.666,0,1.209-0.542,1.209-1.208v-4.08c0-0.667-0.543-1.209-1.209-1.209h-4.931c-0.508,0-0.95-0.346-1.073-0.839
	c-0.509-2.053-2.348-3.486-4.471-3.486c-2.119,0-3.958,1.435-4.472,3.488c-0.123,0.492-0.565,0.837-1.072,0.837H12.029L12.029,6.536
	z M35.704,53.308H20.863c-0.61,0-1.105-0.495-1.105-1.105c0-0.611,0.495-1.105,1.105-1.105h14.841c0.61,0,1.105,0.495,1.105,1.105
	C36.81,52.813,36.314,53.308,35.704,53.308L35.704,53.308z M35.704,29.258H20.863c-0.61,0-1.105-0.495-1.105-1.105
	c0-0.611,0.495-1.105,1.105-1.105h14.841c0.61,0,1.105,0.495,1.105,1.105C36.81,28.763,36.314,29.258,35.704,29.258L35.704,29.258z
	 M35.704,43.558H20.863c-0.61,0-1.105-0.495-1.105-1.105s0.495-1.105,1.105-1.105h14.841c0.61,0,1.105,0.495,1.105,1.105
	S36.314,43.558,35.704,43.558L35.704,43.558z M35.704,57.858H20.863c-0.61,0-1.105-0.495-1.105-1.105
	c0-0.61,0.495-1.105,1.105-1.105h14.841c0.61,0,1.105,0.495,1.105,1.105C36.81,57.363,36.314,57.858,35.704,57.858L35.704,57.858z
	 M16.028,29.258H9.307c-0.61,0-1.106-0.495-1.106-1.105v-6.722c0-0.611,0.496-1.105,1.106-1.105h6.722
	c0.61,0,1.105,0.495,1.105,1.105v6.722C17.134,28.763,16.639,29.258,16.028,29.258L16.028,29.258z M10.412,27.047h4.511v-4.511
	h-4.511V27.047L10.412,27.047z M16.028,43.558H9.307c-0.61,0-1.106-0.495-1.106-1.105V35.73c0-0.611,0.496-1.105,1.106-1.105h6.722
	c0.61,0,1.105,0.495,1.105,1.105v6.722C17.134,43.063,16.639,43.558,16.028,43.558L16.028,43.558z M10.412,41.347h4.511v-4.511
	h-4.511V41.347L10.412,41.347z M16.028,57.858H9.307c-0.61,0-1.106-0.495-1.106-1.105V50.03c0-0.61,0.496-1.105,1.106-1.105h6.722
	c0.61,0,1.105,0.495,1.105,1.105v6.722C17.134,57.363,16.639,57.858,16.028,57.858L16.028,57.858z M10.412,55.647h4.511v-4.511
	h-4.511V55.647L10.412,55.647z M35.704,24.708H20.863c-0.61,0-1.105-0.495-1.105-1.106c0-0.61,0.495-1.105,1.105-1.105h14.841
	c0.61,0,1.105,0.495,1.105,1.105C36.81,24.213,36.314,24.708,35.704,24.708L35.704,24.708z M35.704,39.008H20.863
	c-0.61,0-1.105-0.495-1.105-1.105c0-0.611,0.495-1.105,1.105-1.105h14.841c0.61,0,1.105,0.495,1.105,1.105
	C36.81,38.513,36.314,39.008,35.704,39.008L35.704,39.008z M22.505,10.021c-1.766,0-3.202-1.436-3.202-3.201
	c0-1.768,1.437-3.205,3.202-3.205s3.204,1.438,3.204,3.205C25.709,8.585,24.271,10.021,22.505,10.021L22.505,10.021z M22.505,5.825
	c-0.547,0-0.991,0.446-0.991,0.995c0,0.546,0.444,0.99,0.991,0.99s0.992-0.444,0.992-0.99C23.497,6.271,23.052,5.825,22.505,5.825
	L22.505,5.825z"/>
</svg>
