<?xml version="1.0" encoding="utf-8"?>
<!-- Generator: Adobe Illustrator 16.0.0, SVG Export Plug-In . SVG Version: 6.00 Build 0)  -->
<!DOCTYPE svg PUBLIC "-//W3C//DTD SVG 1.1//EN" "http://www.w3.org/Graphics/SVG/1.1/DTD/svg11.dtd">
<svg version="1.1" id="Capa_1" xmlns="http://www.w3.org/2000/svg" xmlns:xlink="http://www.w3.org/1999/xlink" x="0px" y="0px"
	 width="38px" height="34px" viewBox="0 0 50 50" enable-background="new 0 0 595.28 841.89" xml:space="preserve">
<path d="M31.552,36.65h-5.341c-1.302,0-2.36-1.058-2.36-2.359v-3.887H2.211V48.97c0,1.362,1.108,2.469,2.469,2.469h48.398
	c1.363,0,2.472-1.107,2.472-2.469V30.404H33.895l0.016,3.89C33.911,35.595,32.853,36.65,31.552,36.65L31.552,36.65z M26.061,30.404
	v3.887c0,0.08,0.069,0.148,0.15,0.148h5.341c0.079,0,0.147-0.066,0.147-0.141l-0.016-3.894H26.061L26.061,30.404z M34.491,11.504
	V7.981c0-0.573-0.468-1.04-1.042-1.04h-9.141c-0.572,0-1.038,0.46-1.038,1.027l0.027,3.535H34.491L34.491,11.504z M4.68,13.715
	c-1.361,0-2.469,1.109-2.469,2.472v12.006H55.55V16.187c0-1.363-1.109-2.472-2.472-2.472H4.68L4.68,13.715z M39.222,11.504V7.981
	c0-3.182-2.59-5.771-5.773-5.771h-9.141c-3.181,0-5.77,2.589-5.77,5.771v3.522h2.521V7.977c0-1.794,1.458-3.247,3.249-3.247h9.141
	c1.793,0,3.252,1.458,3.252,3.251v3.522H39.222L39.222,11.504z M16.365,11.504l-0.038-3.511c0-4.413,3.58-7.993,7.98-7.993h9.141
	c4.402,0,7.984,3.581,7.984,7.981v3.522h11.646c2.582,0,4.683,2.101,4.683,4.683V48.97c0,2.581-2.101,4.68-4.683,4.68H4.68
	C2.1,53.65,0,51.551,0,48.97V16.187c0-2.582,2.1-4.683,4.68-4.683H16.365L16.365,11.504z"/>
</svg>
