<?xml version="1.0" encoding="utf-8"?>
<!-- Generator: Adobe Illustrator 16.0.0, SVG Export Plug-In . SVG Version: 6.00 Build 0)  -->
<!DOCTYPE svg PUBLIC "-//W3C//DTD SVG 1.1//EN" "http://www.w3.org/Graphics/SVG/1.1/DTD/svg11.dtd">
<svg version="1.1" id="Capa_1" xmlns="http://www.w3.org/2000/svg" xmlns:xlink="http://www.w3.org/1999/xlink" x="0px" y="0px"
	 width="29px" height="40px" viewBox="0 0 45 60" enable-background="new 0 0 595.28 841.89" xml:space="preserve">
<path d="M29.831,7.021V1.105C29.831,0.496,30.326,0,30.937,0c0.61,0,1.105,0.496,1.105,1.105l0,6.049
	c2.021,0.498,3.525,2.328,3.525,4.502v33.352c0,2.557-2.078,4.635-4.631,4.635H15.735c-2.556,0-4.634-2.078-4.634-4.635V11.656
	c0-2.555,2.079-4.635,4.634-4.635H29.831L29.831,7.021z M15.735,9.232c-1.336,0-2.423,1.088-2.423,2.424v33.352
	c0,1.336,1.087,2.424,2.423,2.424h15.202c1.334,0,2.419-1.088,2.419-2.424V11.656c0-1.336-1.085-2.424-2.419-2.424H15.735
	L15.735,9.232z M17.977,20.266h10.715v-5.564H17.977V20.266L17.977,20.266z M29.798,22.477H16.872c-0.611,0-1.106-0.496-1.106-1.105
	v-7.775c0-0.611,0.495-1.105,1.106-1.105h12.926c0.61,0,1.105,0.494,1.105,1.105v7.775C30.903,21.98,30.408,22.477,29.798,22.477
	L29.798,22.477z M29.2,30.379c-0.961,0-1.74-0.779-1.74-1.738c0-0.961,0.779-1.74,1.74-1.74c0.96,0,1.737,0.779,1.737,1.74
	C30.937,29.6,30.16,30.379,29.2,30.379L29.2,30.379z M17.295,30.379c-0.961,0-1.741-0.779-1.741-1.738c0-0.961,0.78-1.74,1.741-1.74
	c0.96,0,1.74,0.779,1.74,1.74C19.035,29.6,18.256,30.379,17.295,30.379L17.295,30.379z M15.555,34.592c0-0.961,0.78-1.74,1.741-1.74
	c0.96,0,1.74,0.779,1.74,1.74s-0.779,1.738-1.74,1.738C16.334,36.33,15.555,35.553,15.555,34.592L15.555,34.592z M23.244,36.33
	c-0.96,0-1.737-0.779-1.737-1.74s0.776-1.74,1.737-1.74c0.961,0,1.741,0.779,1.741,1.74S24.205,36.33,23.244,36.33L23.244,36.33z
	 M29.2,36.33c-0.961,0-1.74-0.779-1.74-1.74s0.779-1.74,1.74-1.74c0.96,0,1.737,0.779,1.737,1.74S30.16,36.33,29.2,36.33L29.2,36.33
	z M15.555,40.543c0-0.963,0.78-1.738,1.741-1.738c0.96,0,1.74,0.775,1.74,1.738c0,0.961-0.779,1.738-1.74,1.738
	C16.334,42.281,15.555,41.504,15.555,40.543L15.555,40.543z M23.244,42.281c-0.96,0-1.737-0.777-1.737-1.738
	c0-0.963,0.776-1.742,1.737-1.742c0.961,0,1.741,0.779,1.741,1.742C24.985,41.504,24.205,42.281,23.244,42.281L23.244,42.281z
	 M29.2,42.281c-0.961,0-1.74-0.777-1.74-1.738c0-0.963,0.779-1.742,1.74-1.742c0.96,0,1.737,0.779,1.737,1.742
	C30.937,41.504,30.16,42.281,29.2,42.281L29.2,42.281z M23.244,30.379c-0.96,0-1.737-0.779-1.737-1.738
	c0-0.961,0.776-1.74,1.737-1.74c0.961,0,1.741,0.779,1.741,1.74C24.985,29.6,24.205,30.379,23.244,30.379L23.244,30.379z
	 M45.563,64.506H1.106C0.496,64.506,0,64.012,0,63.4V37.293c0-0.609,0.496-1.105,1.106-1.105h5.732c0.61,0,1.105,0.496,1.105,1.105
	v15.049h30.781V37.293c0-0.609,0.496-1.105,1.106-1.105h5.732c0.293,0,0.575,0.117,0.782,0.324s0.324,0.488,0.324,0.781L46.668,63.4
	C46.668,64.012,46.173,64.506,45.563,64.506L45.563,64.506z M2.212,62.295h42.245l0-23.896h-3.521v15.049
	c0,0.611-0.495,1.107-1.106,1.107H6.838c-0.611,0-1.106-0.496-1.106-1.107V38.398h-3.52V62.295L2.212,62.295z"/>
</svg>
