<?xml version="1.0" encoding="utf-8"?>
<!-- Generator: Adobe Illustrator 16.0.0, SVG Export Plug-In . SVG Version: 6.00 Build 0)  -->
<!DOCTYPE svg PUBLIC "-//W3C//DTD SVG 1.1//EN" "http://www.w3.org/Graphics/SVG/1.1/DTD/svg11.dtd">
<svg version="1.1" id="Capa_1" xmlns="http://www.w3.org/2000/svg" xmlns:xlink="http://www.w3.org/1999/xlink" x="0px" y="0px"
	 width="41px" height="33px" viewBox="0 0 52 50" enable-background="new 0 0 595.28 841.89" xml:space="preserve">
<path d="M2.211,5.402h67.313V2.211H2.211V5.402L2.211,5.402z M65.009,7.613H6.521v34.488c0,1.422,1.157,2.578,2.579,2.578h53.33
	c1.423,0,2.579-1.156,2.579-2.578V7.613L65.009,7.613z M35.765,53.01c-0.823,0-1.494,0.67-1.494,1.494s0.671,1.494,1.494,1.494
	c0.824,0,1.494-0.67,1.494-1.494S36.589,53.01,35.765,53.01L35.765,53.01z M34.659,50.967v-4.074H9.1
	c-2.642,0-4.791-2.15-4.791-4.791V7.613H1.105C0.495,7.613,0,7.119,0,6.508V1.105C0,0.494,0.495,0,1.105,0H70.63
	c0.61,0,1.105,0.494,1.105,1.105v5.402c0,0.611-0.495,1.105-1.105,1.105h-3.409v34.488c0,2.641-2.149,4.791-4.791,4.791H36.87v4.074
	c1.505,0.473,2.601,1.879,2.601,3.537c0,2.043-1.663,3.707-3.706,3.707s-3.706-1.664-3.706-3.707
	C32.059,52.846,33.154,51.439,34.659,50.967L34.659,50.967z M33.836,13.016c-6.178,0-11.204,5.025-11.204,11.203
	c0,5.805,4.438,10.592,10.098,11.148V24.219c0-0.611,0.495-1.105,1.106-1.105h11.149C44.429,17.451,39.641,13.016,33.836,13.016
	L33.836,13.016z M33.836,37.633c-7.397,0-13.416-6.018-13.416-13.414s6.019-13.416,13.416-13.416c7.396,0,13.415,6.02,13.415,13.416
	c0,0.609-0.495,1.105-1.106,1.105H34.941v11.203C34.941,37.139,34.446,37.633,33.836,37.633L33.836,37.633z M37.694,41.492
	c-0.611,0-1.106-0.496-1.106-1.107V28.076c0-0.611,0.495-1.105,1.106-1.105h12.309c0.611,0,1.105,0.494,1.105,1.105
	C51.108,35.473,45.091,41.492,37.694,41.492L37.694,41.492z M38.8,29.182v10.045c5.297-0.521,9.522-4.748,10.044-10.045H38.8
	L38.8,29.182z"/>
</svg>
